<?xml version="1.0" encoding="UTF-8"?>
<svg height="16px" viewBox="0 0 16 16" width="16px" xmlns="http://www.w3.org/2000/svg">
    <path d="m 7.4375 0.0742188 c -0.726562 0.0507812 -1.445312 0.1992192 -2.132812 0.4453122 c -3.960938 1.402344 -6.148438 5.613281 -5 9.632813 c 1.148437 4.019531 5.238281 6.464844 9.351562 5.589844 c 4.113281 -0.871094 6.839844 -4.761719 6.238281 -8.894532 l -0.578125 -2.011718 c -1.34375 -3.082032 -4.5 -4.992188 -7.878906 -4.7617192 z m 1.011719 0.9257812 c 2.632812 0.175781 4.945312 1.796875 5.996093 4.199219 l 0.503907 1.773437 c 0.535156 3.648438 -1.871094 7.078125 -5.503907 7.847656 c -3.628906 0.769532 -7.238281 -1.386718 -8.253906 -4.933593 c -1.015625 -3.542969 0.917969 -7.261719 4.414063 -8.5 c 0.910156 -0.320313 1.878906 -0.453125 2.84375 -0.386719 z m 0 0"/>
    <path d="m 7.699219 5.019531 c -0.367188 0.019531 -0.730469 0.078125 -1.074219 0.179688 c -1.992188 0.566406 -3.089844 2.269531 -2.511719 3.894531 c 0.574219 1.625 2.628907 2.613281 4.699219 2.261719 c 2.066406 -0.351563 3.4375 -1.925781 3.132812 -3.597657 l -0.289062 -0.8125 c -0.675781 -1.25 -2.261719 -2.019531 -3.957031 -1.925781 z m -0.917969 2.378907 c 0.207031 -0.015626 0.402344 0.121093 0.480469 0.339843 l 0.039062 0.144531 c 0.035157 0.292969 -0.128906 0.570313 -0.382812 0.628907 c -0.25 0.0625 -0.496094 -0.109375 -0.566407 -0.398438 c -0.070312 -0.28125 0.0625 -0.582031 0.304688 -0.683593 c 0.039062 -0.015626 0.082031 -0.027344 0.125 -0.03125 z m 2.167969 0.027343 c 0.203125 -0.015625 0.394531 0.121094 0.476562 0.335938 l 0.035157 0.144531 c 0.035156 0.292969 -0.128907 0.570312 -0.378907 0.632812 s -0.5 -0.109374 -0.570312 -0.394531 c -0.070313 -0.289062 0.0625 -0.589843 0.304687 -0.6875 c 0.042969 -0.015625 0.085938 -0.027343 0.132813 -0.03125 z m -2.046875 2.210938 h 2.183594 v 0.757812 h -0.003907 c -0.027343 0.164063 -0.382812 0.296875 -0.863281 0.332031 c -0.5625 0.039063 -1.121094 -0.070312 -1.277344 -0.253906 c -0.019531 -0.023437 -0.03125 -0.050781 -0.035156 -0.078125 h -0.003906 v -0.007812 c 0 -0.003907 0 -0.011719 0 -0.019531 z m 0 0"/>
    <path d="m 4.71875 4.117188 c 0.132812 0.15625 0.101562 0.394531 -0.066406 0.546874 c -0.167969 0.152344 -0.417969 0.164063 -0.574219 0.027344 c -0.15625 -0.136718 -0.160156 -0.375 -0.011719 -0.546875 c 0.148438 -0.167969 0.398438 -0.210937 0.574219 -0.097656"/>
    <path d="m 3.996094 4.578125 l 0.707031 -0.425781 l 1.523437 2.527344 l -0.707031 0.425781 z m 0 0"/>
    <path d="m 11.285156 4.132812 c -0.125 0.15625 -0.097656 0.394532 0.0625 0.546876 c 0.15625 0.152343 0.394532 0.164062 0.539063 0.027343 s 0.152343 -0.375 0.011719 -0.546875 c -0.140626 -0.167968 -0.375 -0.210937 -0.539063 -0.097656"/>
    <path d="m 11.960938 4.59375 l -0.664063 -0.425781 l -1.429687 2.527343 l 0.664062 0.425782 z m 0 0"/>
    <path d="m 9.9375 2 c -0.089844 0.003906 -0.179688 0.023438 -0.265625 0.054688 c -0.496094 0.175781 -0.769531 0.699218 -0.625 1.199218 s 0.652344 0.804688 1.167969 0.695313 c 0.347656 -0.070313 0.632812 -0.324219 0.742187 -0.660157 h -1.0625 v -0.640624 h 1.046875 l -0.015625 -0.054688 c -0.171875 -0.386719 -0.566406 -0.625 -0.988281 -0.59375 z m 0 0"/>
    <path d="m 5.929688 2.007812 c -0.089844 0.007813 -0.179688 0.023438 -0.265626 0.054688 c -0.289062 0.105469 -0.515624 0.335938 -0.613281 0.625 h 1.074219 v 0.640625 h -1.0625 c 0.167969 0.464844 0.65625 0.738281 1.144531 0.632813 c 0.515625 -0.105469 0.855469 -0.59375 0.78125 -1.105469 l -0.074219 -0.253907 c -0.167968 -0.382812 -0.5625 -0.621093 -0.984374 -0.59375 z m 0 0"/>
    <path d="m 6.230469 2.53125 h 3.398437 v 0.8125 h -3.398437 z m 0 0"/>
    <path d="m 3.964844 8.285156 h 2.398437 v 3.726563 h -2.398437 z m 0 0"/>
    <path d="m 9.585938 8.289062 h 2.394531 v 3.726563 h -2.394531 z m 0 0"/>
    <path d="m 3.972656 11.011719 h 7.492188 v 1.007812 h -7.492188 z m 0 0"/>
</svg>
