<?xml version="1.0" encoding="UTF-8" standalone="no"?>
<svg
   height="128px"
   viewBox="0 0 128 128"
   width="128px"
   version="1.1"
   id="svg48"
   sodipodi:docname="icon.svg"
   inkscape:version="1.2.2 (b0a8486541, 2022-12-01)"
   xmlns:inkscape="http://www.inkscape.org/namespaces/inkscape"
   xmlns:sodipodi="http://sodipodi.sourceforge.net/DTD/sodipodi-0.dtd"
   xmlns="http://www.w3.org/2000/svg"
   xmlns:svg="http://www.w3.org/2000/svg">
  <defs
     id="defs52" />
  <sodipodi:namedview
     id="namedview50"
     pagecolor="#ffffff"
     bordercolor="#000000"
     borderopacity="0.25"
     inkscape:showpageshadow="2"
     inkscape:pageopacity="0.0"
     inkscape:pagecheckerboard="0"
     inkscape:deskcolor="#d1d1d1"
     showgrid="false"
     inkscape:zoom="4.203125"
     inkscape:cx="23.078067"
     inkscape:cy="70.066914"
     inkscape:window-width="1366"
     inkscape:window-height="768"
     inkscape:window-x="0"
     inkscape:window-y="0"
     inkscape:window-maximized="1"
     inkscape:current-layer="svg48" />
  <g
     fill="#e3e2db"
     id="g22"
     style="fill:#c0bfbc;fill-opacity:1"
     transform="matrix(1.1538486,0,0,1.1364487,-9.0282648,-8.05258)">
    <path
       d="m 63.285156,14.71875 c -27.613281,0 -50,22.386719 -50,50 0,27.613281 22.386719,50 50,50 27.613282,0 50.000004,-22.386719 50.000004,-50 0,-27.613281 -22.386722,-50 -50.000004,-50 z m 0.757813,7.824219 c 22.359375,0 40.488281,18.511719 40.488281,41.34375 0,22.832031 -18.128906,41.343751 -40.488281,41.343751 -22.359375,0 -40.488281,-18.51172 -40.484375,-41.343751 -0.0039,-22.832031 18.125,-41.34375 40.484375,-41.34375 z m 0,0"
       id="path4"
       style="fill:#c0bfbc;fill-opacity:1" />
    <path
       d="m 111.27734,53.664062 h 0.043 c 3.8711,0 7.00391,3.136719 7.00391,7.003907 v 7.277343 c 0,3.867188 -3.13281,7.003907 -7.00391,7.003907 h -0.043 c -3.87109,0 -7.0039,-3.136719 -7.0039,-7.003907 v -7.277343 c 0,-3.867188 3.13281,-7.003907 7.0039,-7.003907 z m 0,0"
       id="path6"
       style="fill:#c0bfbc;fill-opacity:1" />
    <path
       d="m 15.808594,53.484375 h 0.04687 c 4.171875,0 7.554687,3.382813 7.554687,7.550781 v 6.183594 c 0,4.167969 -3.382812,7.550781 -7.554687,7.550781 h -0.04687 c -4.171875,0 -7.550782,-3.382812 -7.550782,-7.550781 v -6.183594 c 0,-4.167968 3.378907,-7.550781 7.550782,-7.550781 z m 0,0"
       id="path8"
       style="fill:#c0bfbc;fill-opacity:1" />
    <path
       d="m 74.140625,14.921875 0.0039,0.04687 c 0.08203,4.171875 -3.226562,7.621094 -7.398437,7.707031 L 60.5664,22.804683 c -4.167968,0.08594 -7.621094,-3.226563 -7.703125,-7.398438 l -0.0039,-0.04687 C 52.773438,11.1875 56.085938,7.738281 60.257812,7.652344 l 6.179688,-0.125 c 4.167969,-0.085938 7.617188,3.222656 7.703125,7.394531 z m 0,0"
       id="path10"
       style="fill:#c0bfbc;fill-opacity:1" />
    <path
       d="m 52.859375,112.4375 v -0.043 c 0,-3.77734 3.0625,-6.83984 6.839844,-6.83984 h 7.605469 c 3.777343,0 6.839843,3.0625 6.839843,6.83984 v 0.043 c 0,3.77734 -3.0625,6.83984 -6.839843,6.83984 h -7.605469 c -3.777344,0 -6.839844,-3.0625 -6.839844,-6.83984 z m 0,0"
       id="path12"
       style="fill:#c0bfbc;fill-opacity:1" />
    <path
       d="m 36.832031,22.042969 0.03516,0.03516 c 2.953124,2.945313 2.957031,7.730469 0.01172,10.679687 l -4.367187,4.375 c -2.945313,2.953126 -7.730469,2.957032 -10.679688,0.01172 l -0.03516,-0.03516 c -2.953126,-2.94922 -2.957032,-7.73047 -0.01172,-10.683595 l 4.367188,-4.371093 c 2.949218,-2.953126 7.730468,-2.957032 10.679687,-0.01172 z m 0,0"
       id="path14"
       style="fill:#c0bfbc;fill-opacity:1" />
    <path
       d="m 105.64844,91.246094 0.0352,0.03516 c 2.95313,2.945312 2.95704,7.726562 0.008,10.679686 l -4.36328,4.375 c -2.949224,2.95312 -7.730474,2.95703 -10.683599,0.008 l -0.03516,-0.0312 c -2.949219,-2.94922 -2.953125,-7.730465 -0.0078,-10.68359 l 4.367188,-4.375 c 2.945312,-2.949218 7.726561,-2.953125 10.679691,-0.0078 z m 0,0"
       id="path16"
       style="fill:#c0bfbc;fill-opacity:1" />
    <path
       d="m 37.726562,106.98047 -0.03906,0.0312 c -3.042969,2.85156 -7.824219,2.69141 -10.671875,-0.35547 l -4.222656,-4.51172 C 19.941408,99.097606 20.101564,94.316356 23.14844,91.4687 l 0.03516,-0.03516 c 3.046875,-2.847656 7.824218,-2.6875 10.675781,0.355468 l 4.222656,4.515626 c 2.847657,3.046874 2.6875,7.824226 -0.355469,10.675786 z m 0,0"
       id="path18"
       style="fill:#c0bfbc;fill-opacity:1" />
    <path
       d="m 104.27344,34.890625 -0.0352,0.03516 C 101.35156,37.9375 96.574219,38.039062 93.5625,35.152344 L 89.097656,30.878906 C 86.085938,27.992188 85.984375,23.210938 88.871094,20.199219 l 0.03516,-0.03516 c 2.886719,-3.011718 7.667969,-3.113281 10.675781,-0.226562 l 4.464845,4.277344 c 3.01171,2.882812 3.11328,7.664062 0.22656,10.675781 z m 0,0"
       id="path20"
       style="fill:#c0bfbc;fill-opacity:1" />
  </g>
  <g
     inkscape:groupmode="layer"
     id="layer1"
     inkscape:label="layer 2">
    <circle
       style="font-variation-settings:'wght' 800;fill:#f6f5f4;fill-opacity:1;stroke-width:1.1024"
       id="path1909"
       cx="65"
       cy="65.671005"
       r="50" />
    <circle
       style="font-variation-settings:'wght' 800;fill:#c0bfbc;fill-opacity:1;stroke-width:1.21909"
       id="path2256"
       cx="64.607819"
       cy="65.63662"
       r="45" />
    <ellipse
       style="font-variation-settings:'wght' 800;fill:#000000;fill-opacity:0"
       id="path2310"
       cx="48.947491"
       cy="57.653809"
       rx="14.628717"
       ry="18.012547" />
    <ellipse
       style="font-variation-settings:'wght' 800;fill:#000000;fill-opacity:0"
       id="path2792"
       cx="67.742104"
       cy="68.698418"
       rx="28.833178"
       ry="26.509758" />
  </g>
  <g
     inkscape:groupmode="layer"
     id="layer2"
     inkscape:label="layer 3">
    <circle
       style="font-variation-settings:'wght' 800;fill:#f6f5f4;fill-opacity:1;stroke-width:1.4051"
       id="path2849"
       cx="64.503723"
       cy="66.053902"
       r="35" />
  </g>
  <g
     id="g188"
     transform="matrix(1.2669832,0,0,1.3927218,-16.449735,-37.944528)">
    <path
       d="m 45.824171,54.113281 7.426364,-2.347656 4.058059,10.480469 -7.422531,2.347656 z m 0,0"
       fill="#006a00"
       id="path24"
       style="fill:#26a269;fill-opacity:1;stroke-width:0.990447" />
    <path
       d="m 81.068193,54.808594 -7.854852,-2.351563 -4.295372,10.480469 7.854852,2.351562 z m 0,0"
       fill="#006a00"
       id="path26"
       style="fill:#26a269;fill-opacity:1;stroke-width:1.01185" />
    <path
       d="m 44.472656,72.007812 h 39.46312 v 20.660157 h -39.46312 z m 0,0"
       fill="#006a00"
       id="path28"
       style="fill:#26a269;fill-opacity:1;stroke-width:1.00461" />
    <path
       d="m 62.858924,57.374392 c -1.799085,0.09808 -3.570551,0.392303 -5.267055,0.875138 -9.780544,2.768758 -15.181741,11.090121 -12.348974,19.030496 2.832769,7.936603 12.932887,12.768726 23.092186,11.044854 10.155353,-1.723872 16.886136,-9.407742 15.39479,-17.574446 l -1.42033,-3.972073 c -2.927456,-5.375313 -9.393898,-9.004122 -16.755937,-9.403969 -0.899544,-0.04904 -1.799085,-0.04904 -2.69468,0 z m 7.851262,9.287032 c 1.787248,-0.124481 3.456134,0.901544 4.166299,2.56129 l 0.307739,1.082607 c 0.319574,2.225568 -1.124427,4.319111 -3.298321,4.786858 -2.177837,0.471518 -4.339894,-0.844962 -4.947479,-3.006403 -0.607585,-2.165215 0.548405,-4.432276 2.647335,-5.186706 0.362974,-0.132026 0.741727,-0.211241 1.124427,-0.237646 z m -12.771125,0.03018 c 1.578142,0.109393 2.962964,1.097696 3.594221,2.56129 l 0.303793,1.086379 c 0.319574,2.221796 -1.124427,4.315339 -3.298321,4.783086 -2.177838,0.471519 -4.339893,-0.844961 -4.947478,-3.006403 -0.607587,-2.161443 0.548403,-4.428504 2.64339,-5.186706 0.548405,-0.196152 1.128371,-0.275367 1.704395,-0.237646 z m 0,0"
       fill="#006a00"
       id="path30"
       style="fill:#26a269;fill-opacity:1;stroke-width:0.987591" />
    <path
       d="m 53.662133,53 c 0.29833,2.078125 -1.036695,4.03125 -3.042962,4.46875 -2.009995,0.4375 -4.008803,-0.789062 -4.568172,-2.808594 -0.563097,-2.019531 0.50716,-4.136718 2.442574,-4.839844 1.935414,-0.707031 4.0722,0.242188 4.888877,2.167969"
       fill="#006a00"
       id="path32"
       style="fill:#26a269;fill-opacity:1;stroke-width:0.977064" />
    <path
       d="m 81.187648,53.066406 c 0.317161,2.074219 -1.102132,4.03125 -3.239001,4.46875 -2.132904,0.4375 -4.257881,-0.789062 -4.852557,-2.808594 -0.598641,-2.019531 0.539173,-4.136718 2.596753,-4.84375 2.057579,-0.703124 4.329241,0.246094 5.197469,2.171876"
       fill="#006a00"
       id="path34"
       style="fill:#26a269;fill-opacity:1;stroke-width:1.00743" />
  </g>
  <path
     style="font-variation-settings:'wght' 800;fill:#deddda;fill-opacity:1;stroke-width:0.237918"
     d="m 57.802364,127.0903 c -2.611995,-0.72651 -4.641868,-2.80631 -5.548957,-5.68544 -0.07092,-0.2251 -0.427951,-0.4751 -0.793405,-0.55557 -4.733471,-1.04219 -10.464198,-3.16973 -14.89699,-5.53055 l -2.574537,-1.37114 -1.693711,0.84033 c -1.570512,0.7792 -1.850499,0.83961 -3.849255,0.83053 -3.23475,-0.0147 -4.220693,-0.56513 -8.042316,-4.48996 -3.661253,-3.76013 -4.565474,-5.01224 -5.077897,-7.03154 -0.469315,-1.84943 -0.346371,-3.24767 0.4614,-5.247506 l 0.583803,-1.445351 -1.42663,-2.269852 C 12.026657,90.492798 8.9320011,83.067389 7.833152,78.072594 7.6418872,77.203202 7.3867979,76.640921 7.1537813,76.575089 5.8657608,76.211195 3.6756223,74.868352 2.8613044,73.943237 0.93806975,71.75833 0.8417443,71.355953 0.76129142,65.170957 0.69545077,60.109309 0.72813806,59.577919 1.1795515,58.371409 c 0.8638416,-2.308822 2.9689023,-4.278238 5.4351321,-5.0849 1.138264,-0.372308 1.2520272,-0.478586 1.4853006,-1.3876 0.682441,-2.659315 1.8050917,-5.961498 2.8742098,-8.454253 1.07376,-2.503578 3.677072,-7.358244 4.724857,-8.810932 0.407334,-0.564742 0.399263,-0.603423 -0.347544,-1.665428 -1.152976,-1.639604 -1.578686,-2.957583 -1.578686,-4.887544 0,-3.13186 0.479861,-3.964899 4.758775,-8.261249 2.99243,-3.004623 3.993298,-3.859865 5.121619,-4.376428 3.086718,-1.413146 6.839188,-0.886521 9.235992,1.296186 l 0.651287,0.593111 1.1331,-0.643927 c 5.104428,-2.900788 12.253433,-5.70007 16.507389,-6.463675 l 0.861278,-0.154603 0.120361,-1.49942 c 0.238689,-2.9735673 2.166914,-5.7212498 4.890999,-6.9695791 1.596157,-0.73144932 5.506964,-1.10133565 10.039316,-0.94952433 3.437309,0.11513282 5.05279,0.74870113 6.906354,2.70857153 1.507531,1.5939911 2.1729,3.0686558 2.321468,5.1450825 0.107732,1.5056864 0.15694,1.6226614 0.737487,1.7530924 3.972259,0.892445 9.542055,2.919472 13.274566,4.831037 l 2.184113,1.11857 1.146742,-1.169808 c 2.821879,-2.878642 6.728123,-3.486662 10.263983,-1.597626 0.87447,0.467182 2.57814,1.916869 4.82895,4.109047 4.31224,4.199911 4.61233,4.730226 4.60935,8.145557 -0.002,2.629251 -0.31391,3.518892 -1.93137,5.513888 l -0.80544,0.993444 1.40006,2.099493 c 3.48282,5.222724 6.16162,11.104262 7.64759,16.790945 0.43129,1.650515 0.63324,2.081784 0.97486,2.081784 1.12905,0 3.15343,1.049624 4.3692,2.265396 2.14856,2.148556 2.30159,2.836484 2.21713,9.966815 -0.0666,5.622167 -0.10159,6.031217 -0.60306,7.048717 -0.99956,2.028103 -2.90805,3.588294 -5.24247,4.285721 -0.78321,0.23399 -1.04774,0.444814 -1.15274,0.918702 -1.15468,5.211656 -3.83586,11.955738 -6.47397,16.28426 l -0.99469,1.632062 0.8622,1.174557 c 1.90847,2.599861 2.21478,5.822809 0.82179,8.646769 -0.53854,1.09177 -1.50603,2.22204 -4.11312,4.80519 -2.8553,2.82908 -3.67757,3.50335 -5.06302,4.15168 -1.44017,0.67393 -1.90097,0.77344 -3.56315,0.76942 -2.035486,-0.005 -3.384918,-0.44078 -5.16082,-1.6669 l -0.872579,-0.60245 -2.010055,1.20975 c -4.286943,2.58009 -10.008258,4.97509 -14.655293,6.13484 -2.388737,0.59616 -2.672248,0.72333 -2.804321,1.258 -0.511272,2.06977 -2.464497,4.34758 -4.557504,5.31488 -1.032377,0.47712 -1.531877,0.5179 -6.941423,0.56667 -4.118272,0.0371 -6.146663,-0.0358 -6.911391,-0.2485 z M 70.899628,115.40181 C 87.933685,113.34386 102.57041,102.93248 110.04932,87.553903 122.19374,62.5818 111.68728,32.535266 86.594819,20.478391 69.24263,12.1407 48.331092,14.630124 33.358963,26.815879 23.952108,34.472077 17.871879,44.92791 15.540527,57.457249 c -0.602371,3.237308 -0.602371,13.179049 0,16.416357 2.0512,11.023726 6.711615,19.957955 14.351796,27.513054 7.886199,7.79837 18.472829,12.84256 29.587231,14.09736 2.823504,0.31877 8.43549,0.27838 11.420074,-0.0822 z"
     id="path3454" />
  <path
     style="font-variation-settings:'wght' 800;fill:#c0bfbc;fill-opacity:1;stroke-width:0.237918"
     d="m 60.907063,110.36229 c -0.327137,-0.0473 -1.54933,-0.2051 -2.715986,-0.35077 -2.932354,-0.36614 -6.929651,-1.41144 -9.896144,-2.58787 C 24.041643,97.805502 12.959329,69.949359 24.062184,46.513011 33.685545,26.199636 56.897725,16.064562 78.156134,22.89411 c 11.73903,3.77132 21.069071,11.774178 26.626266,22.838715 6.25199,12.4479 6.21322,27.452503 -0.10343,40.036692 -7.651718,15.243923 -23.500287,24.916053 -40.491155,24.711093 -1.477275,-0.0178 -2.953614,-0.0711 -3.280752,-0.11832 z m 9.579006,-9.73247 c 3.399523,-0.59416 6.054557,-1.465417 9.335492,-3.063462 3.290031,-1.602472 5.601911,-3.120711 7.77167,-5.10375 0.734765,-0.671534 1.561819,-1.220972 1.837897,-1.220972 0.35053,0 0.501958,-0.149989 0.501958,-0.497188 0,-0.273453 0.543562,-1.103193 1.207915,-1.843866 1.771796,-1.975335 3.601468,-4.823851 5.078376,-7.906248 3.830933,-7.995399 4.432993,-17.425449 1.651084,-25.860925 C 96.153667,49.927644 93.329033,45.38821 89.249523,41.27881 l -2.716158,-2.736059 -0.02505,-1.67188 c -0.03299,-2.202477 -0.784345,-3.734569 -2.348798,-4.789479 -2.032485,-1.370505 -4.50131,-1.260512 -6.301949,0.280768 l -0.935325,0.800602 -1.783752,-0.566446 c -3.789623,-1.203429 -5.472932,-1.42903 -10.662657,-1.42903 -5.386347,0 -6.978955,0.23379 -11.216666,1.646569 l -2.294733,0.765024 -0.651939,-0.81705 c -2.020446,-2.532145 -6.140003,-2.14464 -7.82839,0.736375 -0.753868,1.286378 -1.104727,3.574296 -0.721868,4.707226 0.274284,0.811642 0.271754,0.815978 -1.35753,2.326259 -5.451228,5.053072 -9.332247,12.369162 -10.552485,19.892443 -0.447337,2.758019 -0.447337,8.438326 0,11.196346 1.94351,11.982553 9.720217,21.894097 20.990779,26.753104 3.180017,1.370979 6.580972,2.211248 11.015732,2.721648 1.514602,0.17431 6.508534,-0.0951 8.627333,-0.46541 z"
     id="path4977" />
  <path
     style="font-variation-settings:'wght' 800;fill:#c0bfbc;fill-opacity:1;stroke-width:0.237918"
     d="m 40.02609,75.95539 c 0.07719,-14.732624 0.09001,-15.088257 0.611285,-16.951673 0.709757,-2.537212 2.127994,-5.34019 3.731802,-7.375464 0.721802,-0.915985 1.377384,-1.800068 1.456849,-1.964629 0.07947,-0.164561 -0.778002,-2.894672 -1.905484,-6.066914 -2.125481,-5.980175 -2.320287,-6.941406 -1.775369,-8.760181 0.8028,-2.679506 3.829311,-4.247314 6.219346,-3.221776 1.701145,0.729943 2.254965,1.67876 4.126293,7.069257 0.964766,2.779077 1.807005,5.105752 1.871643,5.17039 0.06464,0.06464 1.055067,-0.161891 2.200954,-0.503397 1.145887,-0.341507 2.72581,-0.755951 3.51094,-0.920987 2.108815,-0.443278 7.90648,-0.359038 10.230484,0.148648 1.04684,0.228686 2.181222,0.467748 2.520848,0.531249 0.647052,0.120981 0.820011,-0.272752 3.696333,-8.414562 0.617576,-1.748128 2.898945,-3.402449 4.699453,-3.407779 0.883434,-0.0026 2.275936,0.554074 3.11406,1.244926 1.303622,1.074557 1.892748,2.392192 1.889418,4.225866 -0.0025,1.349301 -0.236415,2.159936 -1.835066,6.358146 -1.007743,2.646423 -1.832258,4.951939 -1.832258,5.123369 0,0.17143 0.596316,0.896882 1.325145,1.612114 2.274374,2.231945 3.511625,4.34257 4.728815,8.066875 l 1.083586,3.315509 v 14.88467 14.88467 H 64.821206 39.947246 Z M 62.003189,61.841865 c 0.212579,-0.846981 -0.05561,-2.570763 -0.583738,-3.751901 -2.032412,-4.545445 -8.238649,-4.180683 -9.919373,0.582997 -0.354498,1.004753 -0.47612,3.334888 -0.189049,3.621958 0.08724,0.08724 2.494118,0.158613 5.348627,0.158613 h 5.190014 z m 16.891512,0.0027 c 0.463412,-1.846379 -0.767405,-4.903704 -2.466203,-6.126004 -1.181742,-0.850275 -3.223799,-1.126429 -4.707828,-0.636655 -1.344379,0.443684 -2.858285,2.08713 -3.303428,3.586086 -0.379522,1.277992 -0.501184,3.339749 -0.214019,3.626914 0.08724,0.08724 2.494118,0.158613 5.348625,0.158613 h 5.190017 z"
     id="path6431" />
  <path
     style="font-variation-settings:'wght' 800;fill:#57e389;fill-opacity:1;stroke-width:0.237918"
     d="m 40.118799,79.167286 c 0.144826,-18.344631 0.157776,-18.641175 0.91172,-20.877323 0.817805,-2.425553 1.936505,-4.533919 3.583626,-6.753907 0.717239,-0.966694 1.304071,-1.89496 1.304071,-2.062814 0,-0.167854 -0.856506,-2.865496 -1.903346,-5.994761 -2.03633,-6.087094 -2.248468,-7.336916 -1.535113,-9.044214 1.257234,-3.008986 5.122488,-3.918031 7.158821,-1.683638 0.772842,0.848011 1.320945,2.080624 2.945847,6.624836 0.818836,2.289963 1.582654,4.266878 1.697374,4.393145 0.13199,0.145276 1.364839,-0.07313 3.357443,-0.594796 3.047244,-0.797768 3.283226,-0.823492 7.312431,-0.797101 2.897137,0.01898 4.692965,0.145618 5.904031,0.416357 0.957252,0.213997 1.891588,0.389086 2.076298,0.389086 0.544523,0 0.990044,-0.900045 2.475092,-5.00021 0.772946,-2.134081 1.610713,-4.15716 1.8617,-4.495731 0.653021,-0.880891 2.208026,-1.923322 3.20418,-2.147991 2.04101,-0.460323 4.83733,1.412307 5.440362,3.643285 0.430958,1.594379 0.115388,3.100309 -1.668042,7.960034 -0.928219,2.529335 -1.687673,4.805487 -1.687673,5.058114 0,0.252627 0.7452,1.263022 1.656001,2.245322 2.098455,2.263187 3.035396,3.954668 4.394664,7.933792 l 1.086881,3.181746 V 76.282116 91.003717 H 64.86026 40.025353 Z M 62.096654,61.068405 c 0,-3.659556 -2.272051,-6.236027 -5.487756,-6.223032 -1.661444,0.0067 -2.998908,0.620229 -4.06353,1.864002 -1.016207,1.187209 -1.392952,2.34609 -1.392952,4.284771 v 1.459386 h 5.472119 5.472119 z m 16.889869,-0.101862 c -0.0017,-1.091412 -0.164125,-1.835097 -0.610541,-2.795539 -1.134023,-2.439792 -2.466408,-3.330855 -4.980549,-3.330855 -1.873592,0 -2.592133,0.328553 -3.854194,1.762329 -1.106969,1.257586 -1.496629,2.40099 -1.496629,4.391668 v 1.459386 h 5.472119 5.472119 l -0.0024,-1.486989 z"
     id="path6433" />
</svg>
